<?xml version="1.0" encoding="UTF-8" standalone="no"?>
<svg
   width="440"
   height="440"
   viewBox="0 0 440 440"
   fill="none"
   class="logo"
   version="1.1"
   id="svg7"
   sodipodi:docname="icon.svg"
   xml:space="preserve"
   inkscape:version="1.3.2 (091e20e, 2023-11-25, custom)"
   inkscape:export-filename="icon_16.png"
   inkscape:export-xdpi="3.4909091"
   inkscape:export-ydpi="3.4909091"
   xmlns:inkscape="http://www.inkscape.org/namespaces/inkscape"
   xmlns:sodipodi="http://sodipodi.sourceforge.net/DTD/sodipodi-0.dtd"
   xmlns="http://www.w3.org/2000/svg"
   xmlns:svg="http://www.w3.org/2000/svg"><defs
     id="defs7" /><sodipodi:namedview
     id="namedview7"
     pagecolor="#505050"
     bordercolor="#eeeeee"
     borderopacity="1"
     inkscape:showpageshadow="0"
     inkscape:pageopacity="0"
     inkscape:pagecheckerboard="0"
     inkscape:deskcolor="#505050"
     inkscape:zoom="0.6697861"
     inkscape:cx="310.54691"
     inkscape:cy="254.55888"
     inkscape:window-width="1920"
     inkscape:window-height="1017"
     inkscape:window-x="-8"
     inkscape:window-y="-8"
     inkscape:window-maximized="1"
     inkscape:current-layer="svg7" /><g
     id="g7"
     transform="translate(43.3465)"><path
       d="m 300.758,59.063997 h -68.479 a 54.17,54.17 0 0 0 0.097,-3.321 C 232.376,24.938 207.428,0 176.654,0 c -30.803,0 -55.756,24.938 -55.756,55.742997 0,1.112 0.065,2.208 0.098,3.321 H 52.55 V 116.83 h 248.208 z m -124.104,21.76 c -13.865,-0.033 -25.049,-11.232 -25.079,-25.081 C 151.605,41.881 162.789,30.662 176.654,30.643 c 13.834,0.019 25.083,11.237 25.083,25.099997 0,13.848 -11.249,25.047 -25.083,25.081 z m 149.053,13.787 V 143.287 H 27.635 V 94.610997 H 0 V 439.689 H 353.307 V 94.610997 Z"
       id="path1"
       style="fill:#283a97;fill-opacity:1" /><path
       d="m 66.92502,287.71327 c 0.0654,-60.63246 49.29264,-109.66276 109.8597,-109.59723 60.56706,0.0654 109.66266,49.29264 109.59726,109.8597 -0.0654,60.56707 -49.16143,109.59728 -109.72849,109.59728 -60.63246,-0.0654 -109.794,-49.22685 -109.72847,-109.85975 z m 107.49966,37.55963 c -8.52107,0.26204 -17.04259,-0.52449 -25.36704,-2.2942 -6.16147,-1.24564 -11.34022,-5.37494 -13.89645,-11.14315 -2.49084,-5.70282 -3.67064,-14.5522 -3.60524,-26.48188 0.0659,-6.22688 0.4591,-12.45418 1.1798,-18.61566 0.72113,-6.03068 1.44227,-11.01235 2.09756,-14.94503 l 0.72115,-3.86771 c 0,-0.1308 0,-0.19663 0,-0.32743 0,-1.1144 -0.78654,-2.03216 -1.8351,-2.2288 l -14.15893,-2.22881 h -0.19664 c -1.04856,0 -1.90093,0.72114 -2.16296,1.7043 -0.26204,0.91778 -0.39327,1.57308 -0.78655,3.73649 -0.78653,4.19514 -1.57306,8.25904 -2.35959,14.15849 -0.85237,6.4235 -1.37688,12.91284 -1.57351,19.40219 -0.32743,4.52301 -0.32743,9.04601 0,13.56859 0.32787,11.99552 2.42544,21.631 6.16191,28.77608 3.73604,7.14464 10.22538,12.32295 19.27096,15.46952 9.04603,3.14614 21.63145,4.71921 37.82167,4.65381 h 2.03216 c 16.19067,0.0654 28.77566,-1.44228 37.82167,-4.65381 9.04558,-3.14657 15.46953,-8.32488 19.27139,-15.46952 3.80144,-7.21048 5.83362,-16.78056 6.16148,-28.77608 0.32787,-4.52258 0.32787,-9.04558 0,-13.56859 -0.19663,-6.48935 -0.72114,-12.97869 -1.57306,-19.40219 -0.85238,-5.83405 -1.57351,-9.89796 -2.36004,-14.15849 -0.39327,-2.16341 -0.5899,-2.81871 -0.78655,-3.73649 -0.26202,-0.98316 -1.1144,-1.7043 -2.16296,-1.7043 h -0.39327 l -14.15849,2.22881 c -1.04901,0.19664 -1.83554,1.1144 -1.83554,2.2288 0,0.1308 0,0.19663 0,0.32743 l 0.78653,3.86771 c 0.72115,3.93268 1.44228,8.91435 2.16341,14.87919 0.7207,6.16192 1.11397,12.38879 1.1798,18.6161 0.1308,11.92968 -1.1144,20.71323 -3.60523,26.48145 -2.49084,5.7028 -7.60374,9.83254 -13.69983,11.14314 -8.32443,1.77015 -16.84595,2.55668 -25.36746,2.29464 z"
       fill="#283a97"
       id="circle-logo"
       style="fill:#f9f9f9;fill-opacity:1;stroke-width:4.38913" /></g></svg>
